HIERARCHY
ROOT pelvis
{
  OFFSET 0 100 0
  CHANNELS 6 Xposition Yposition Zposition Zrotation Xrotation Yrotation
  JOINT pelvis_right_femur
  {
    OFFSET -10.78128 -3.44521 -0.5502486
    CHANNELS 3 Zrotation Xrotation Yrotation
    JOINT right_femur_tibia
    {
      OFFSET -0.8047443 -44.0398 -0.1307829
      CHANNELS 3 Zrotation Xrotation Yrotation
      JOINT right_tibia_foot
      {
        OFFSET 3.006224 -47.83518 -5
        CHANNELS 3 Zrotation Xrotation Yrotation
        End Site
        {
          OFFSET 0 -5 15
        }
      }
    }
  }
  JOINT pelvis_left_femur
  {
    OFFSET 10.78128 -3.44521 -0.5502486
    CHANNELS 3 Zrotation Xrotation Yrotation
    JOINT left_femur_tibia
    {
      OFFSET 0.8047443 -44.0398 -0.1307829
      CHANNELS 3 Zrotation Xrotation Yrotation
      JOINT left_tibia_foot
      {
        OFFSET -4.370144 -48.10324 -4.275266
        CHANNELS 3 Zrotation Xrotation Yrotation
        End Site
        {
          OFFSET 0 -5 15
        }
      }
    }
  }
  JOINT pelvis_spine1
  {
    OFFSET 0 6.468898 -3.129235
    CHANNELS 3 Zrotation Xrotation Yrotation
    JOINT spine1
    {
      OFFSET 0 23.15396 4.99043
      CHANNELS 3 Zrotation Xrotation Yrotation
      JOINT spine2
      {
        OFFSET 0 20.79997 -5.064912
        CHANNELS 3 Zrotation Xrotation Yrotation
        JOINT neck
        {
          OFFSET 0 14.38658 9.616178
          CHANNELS 3 Zrotation Xrotation Yrotation
          End Site
          {
            OFFSET 0 20 0
          }
        }
      }
      JOINT right_manubrium
      {
        OFFSET -5.722621 16.35077 3.967754
        CHANNELS 3 Zrotation Xrotation Yrotation
        JOINT right_clavicle
        {
          OFFSET -13.16364 1.694482 -4.693211
          CHANNELS 3 Zrotation Xrotation Yrotation
          JOINT right_humerus
          {
            OFFSET -28.5034 -0.3100689 -2.792744
            CHANNELS 3 Zrotation Xrotation Yrotation
            JOINT right_radius
            {
              OFFSET -25.15693 0.02248979 -1.271978
              CHANNELS 3 Zrotation Xrotation Yrotation
              End Site
              {
                OFFSET -15 0 0
              }
            }
          }
        }
      }
      JOINT left_manubrium
      {
        OFFSET 5.722621 16.35077 3.967754
        CHANNELS 3 Zrotation Xrotation Yrotation
        JOINT left_clavicle
        {
          OFFSET 13.16364 1.694482 -4.693211
          CHANNELS 3 Zrotation Xrotation Yrotation
          JOINT left_humerus
          {
            OFFSET 29.39168 -1.063119 -2.237045
            CHANNELS 3 Zrotation Xrotation Yrotation
            JOINT left_radius
            {
              OFFSET 24.59957 -0.9528479 0.9047498
              CHANNELS 3 Zrotation Xrotation Yrotation
              End Site
              {
                OFFSET 15 -0 -0
              }
            }
          }
        }
      }
    }
  }
}
MOTION
Frames: 23
Frame Time: 0.0416666666667
0 103.5113 0 0.3607214 -0.2569512 -0.04727423 4.218266 -19.37442 9.625673 -0 36.83124 -0 -5.703087 -16.52023 -3.213908 -6.841612 10.11299 -22.60647 -0 6.171607 -0 9.88239 -16.64624 27.04125 -3.339857 -3.411418 4.806603 2.592743 9.73285 -7.745546 1.534652 21.84078 6.643086 2.986293 -25.13406 9.760048 6.180319 -20.12754 11.56596 85.82374 35.21467 -18.98277 -0 0 16.39975 -7.177582 8.394358 4.132834 6.204995 -19.6787 -1.264332 -94.10349 25.49978 22.19562 0 0 -14.58978 10.96564 17.0113 1.778001
0.3107615 103.8758 1.81 0.2199621 -0.3145282 -0.05645738 4.215164 -20.53915 8.802579 -0 35.46952 -0 -5.915798 -15.22923 -2.958316 -6.627386 10.56336 -21.89434 -0 6.085169 -0 9.004995 -17.52241 26.11078 -3.257874 -3.102557 4.557133 2.62947 9.673369 -7.795379 1.469761 21.85234 6.764219 3.014952 -25.20888 9.752312 5.822206 -19.90774 11.4994 86.14928 34.49544 -19.2544 -0 0 15.85956 -7.790181 8.333317 4.361918 6.318269 -20.03631 -1.393384 -93.54984 25.41207 21.41795 0 0 -15.20649 10.84417 16.93689 1.779218
0.6213022 104.0418 4.003226 -0.09986751 0.5687386 0.005340787 4.80314 -24.28099 7.76423 -0 30.60083 -0 -5.976293 -12.39363 -2.268507 -6.389728 11.46514 -20.80345 -0 5.710639 -0 8.311459 -19.50816 24.87907 -3.235124 -2.602161 4.367065 3.009627 9.588153 -8.035583 1.422689 21.36077 7.043505 3.188642 -26.09724 9.935656 5.425911 -19.6273 11.43516 86.44166 34.07941 -19.82284 -0 0 15.20764 -8.214811 8.402315 4.648001 6.769964 -20.65754 -1.242933 -92.77219 24.49221 20.30749 0 0 -16.51479 11.38452 16.17953 0.9243214
0.9206161 104.041 6.58228 -0.4403526 1.477559 0.1615539 5.452442 -27.55378 6.979787 -0 26.24147 -0 -6.091426 -9.888685 -1.694511 -6.138541 12.39042 -19.83052 -0 5.733249 -0 7.365889 -21.22485 23.5954 -3.154166 -2.208011 4.160547 3.358245 9.472449 -8.281917 1.362828 20.86899 7.313731 3.387272 -26.88781 10.07928 5.152521 -19.30777 11.37808 86.70944 33.87797 -20.44578 -0 0 14.60292 -8.462799 8.514142 4.810668 7.175657 -21.17899 -1.053991 -92.22357 23.85867 19.47174 0 0 -17.68707 11.63377 15.50727 0.3911647
1.202312 103.9299 9.59686 -0.8014089 2.409624 0.4312674 6.186544 -30.44772 6.396074 -0 22.36178 -0 -6.26279 -7.587345 -1.201078 -5.891958 13.28727 -18.84181 -0 6.231205 -0 6.420421 -22.45913 22.27152 -2.993816 -1.894868 3.936359 3.655084 9.362608 -8.513135 1.285546 20.38672 7.576509 3.58709 -27.54554 10.18277 4.960309 -18.93617 11.34428 87.03516 33.92108 -21.10166 -0 0 13.86662 -8.597707 8.672038 4.927676 7.525064 -21.65515 -0.8750026 -91.62663 23.24165 18.64173 0 0 -19.01422 11.93963 14.74654 -0.1646532
1.463995 103.7753 13.09943 -1.219993 3.326601 0.8287137 7.024871 -32.83998 6.017555 -0 19.09658 -0 -6.511652 -5.532398 -0.8062263 -5.611149 14.14073 -17.83381 -0 7.374478 -0 5.247756 -23.1738 20.77049 -2.713772 -1.654467 3.668689 3.896477 9.24318 -8.732763 1.181428 19.92267 7.832456 3.781373 -28.06371 10.23247 4.8441 -18.503 11.32581 87.41741 34.14272 -21.79401 -0 0 13.03573 -8.64494 8.875643 5.005969 7.783047 -22.05737 -0.7197871 -91.05088 22.75135 17.90997 0 0 -20.37411 12.10579 13.95216 -0.5255526
1.705347 103.6513 17.1449 -1.71207 4.114528 1.350541 7.919339 -34.50747 5.778795 -0 16.61251 -0 -6.886022 -3.814398 -0.5304853 -5.26494 14.8938 -16.76728 -0 9.441201 -0 3.718827 -23.2094 18.99421 -2.269888 -1.482517 3.338881 4.059089 9.113941 -8.926333 1.049856 19.53296 8.05739 3.939969 -28.38024 10.20251 4.755889 -17.99415 11.31228 87.88885 34.39274 -22.50429 -0 0 12.08554 -8.682996 9.112172 5.066378 7.904 -22.37438 -0.6365 -90.49016 22.42014 17.26189 0 0 -21.65459 12.07702 13.19645 -0.6258623
1.93025 103.6472 21.76732 -2.273775 4.653076 1.962072 8.799405 -35.17039 5.631364 -0 15.06958 -0 -7.423243 -2.596866 -0.401485 -4.832384 15.41713 -15.65228 -0 12.78593 -0 1.794093 -22.37816 16.9369 -1.63782 -1.38161 2.960173 4.129595 8.981388 -9.077149 0.9011622 19.27521 8.21159 4.031128 -28.45197 10.06942 4.666601 -17.41548 11.29819 88.43265 34.53402 -23.17728 -0 0 11.05408 -8.760385 9.374183 5.117003 7.834355 -22.56986 -0.6625459 -90.00188 22.28159 16.7497 0 0 -22.62498 11.80711 12.57768 -0.4088726
2.146928 103.8692 26.95791 -2.861518 4.80681 2.584597 9.552581 -34.52658 5.504636 -0 14.55301 -0 -8.148653 -2.055124 -0.4386774 -4.314881 15.48809 -14.51915 -0 17.81879 -0 -0.4191897 -20.50346 14.71398 -0.83053 -1.344465 2.584968 4.100864 8.868909 -9.159456 0.7557799 19.21352 8.246681 4.025934 -28.24855 9.815529 4.552563 -16.79543 11.28749 88.99799 34.43958 -23.72074 -0 0 10.00759 -8.924912 9.654344 5.170892 7.522283 -22.60677 -0.8311297 -89.65736 22.33561 16.43598 0 0 -23.0185 11.29881 12.18635 0.1268755
2.367077 104.4351 32.63835 -3.376788 4.461847 3.095926 10.03599 -32.32651 5.323657 -0 14.99011 -0 -9.045143 -2.323406 -0.6367705 -3.754997 14.76385 -13.4221 -0 24.86614 -0 -2.641856 -17.53569 12.57724 0.06909751 -1.33685 2.318912 3.977799 8.820245 -9.136636 0.6422701 19.3983 8.121247 3.913454 -27.77449 9.439937 4.41462 -16.19924 11.30068 89.48593 34.05527 -24.00444 -0 0 9.055407 -9.21553 9.947421 5.256376 6.937232 -22.45671 -1.153812 -89.53331 22.54251 16.40008 0 0 -22.60425 10.59608 12.06245 0.9350193
2.602694 105.4511 38.64524 -3.667746 3.58096 3.362098 10.10291 -28.50204 5.022661 -0 16.03375 -0 -10.01612 -3.403623 -0.9375376 -3.250197 12.81057 -12.41348 -0 33.89197 -0 -4.475127 -13.71087 10.85201 0.8830947 -1.285509 2.315123 3.777124 8.896442 -8.964426 0.5871323 19.83863 7.826886 3.716849 -27.0823 8.966271 4.287701 -15.73383 11.37603 89.76433 33.46335 -23.89058 -0 0 8.333415 -9.670311 10.2508 5.431403 6.106115 -22.13162 -1.601685 -89.66187 22.81173 16.70141 0 0 -21.35233 9.784401 12.13946 1.91717
2.860794 106.9614 44.74839 -3.569267 2.2633 3.307723 9.651913 -23.30355 4.563668 -0 17.02245 -0 -10.86283 -5.082169 -1.210762 -2.928072 9.245961 -11.50414 -0 44.09862 -0 -5.546754 -9.656947 9.813372 1.355808 -1.098379 2.725826 3.519157 9.154677 -8.607998 0.5959453 20.47423 7.412361 3.49901 -26.26618 8.438768 4.232914 -15.52978 11.55587 89.70265 32.90751 -23.28662 -0 0 7.969272 -10.33809 10.56437 5.783479 5.150781 -21.71675 -2.092748 -89.97191 23.01391 17.32569 0 0 -19.60028 8.976448 12.22521 2.932821
3.137636 108.8863 50.71851 -2.988777 0.7481318 2.984314 8.697668 -17.31188 3.957817 -0 17.1738 -0 -11.33296 -6.940157 -1.292023 -2.847468 4.004176 -10.629 -0 53.68694 -0 -5.689357 -6.257488 9.5955 1.263391 -0.7359404 3.603771 3.21109 9.61026 -8.07262 0.6382982 21.1769 6.975309 3.336378 -25.41778 7.901859 4.285461 -15.69335 11.85425 89.22418 32.68882 -22.18369 -0 0 8.045645 -11.28268 10.88601 6.395335 4.28629 -21.36527 -2.509482 -90.27912 23.02077 18.15158 0 0 -18.02664 8.288558 12.08561 3.820225
3.417021 110.9948 56.41427 -2.006148 -0.6863245 2.553566 7.438826 -11.21109 3.292057 -0 16.02356 -0 -11.26666 -8.543615 -1.10535 -2.866942 -2.450291 -9.651734 -0 60.237 -0 -5.04132 -4.204329 10.20972 0.5952336 -0.278519 4.807538 2.839579 10.2034 -7.422964 0.6624982 21.80245 6.60087 3.259307 -24.56772 7.379732 4.376221 -16.25706 12.22499 88.34475 32.92331 -20.62434 -0 0 8.612767 -12.55176 11.20068 7.283583 3.739931 -21.20586 -2.751983 -90.40459 22.75602 19.01454 0 0 -17.23729 7.809726 11.62934 4.43291
3.680245 112.955 61.8174 -0.9000897 -1.871666 2.170381 6.233664 -5.455779 2.716 -0 13.74311 -0 -10.72496 -9.743866 -0.7619098 -2.641704 -9.235656 -8.426239 -0 61.77732 -0 -3.982616 -3.557294 11.59051 -0.3572259 0.1222784 6.020075 2.391072 10.80093 -6.753875 0.640015 22.26221 6.296517 3.20985 -23.68025 6.884868 4.317138 -17.177 12.56499 87.15707 33.36229 -18.61783 -0 0 9.744812 -14.11667 11.46671 8.374535 3.623489 -21.21065 -2.789816 -90.35626 22.22937 19.84798 0 0 -17.21644 7.558664 11.01696 4.70494
3.926667 114.4419 66.99293 -0.02695103 -2.78853 1.881243 5.420721 -0.1636662 2.342976 -0 10.95255 -0 -9.927681 -10.80703 -0.4631748 -1.84236 -15.47509 -6.90415 -0 57.74452 -0 -2.944357 -3.794994 13.5472 -1.160363 0.3817852 6.918499 1.883133 11.23759 -6.12924 0.5883482 22.5448 6.010508 3.080254 -22.72814 6.44986 3.916054 -18.37137 12.75852 85.77108 33.533 -16.12834 -0 0 11.5361 -15.84599 11.61391 9.562846 3.869715 -21.17723 -2.663859 -90.3481 21.54866 20.74196 0 0 -17.29855 7.440002 10.52303 4.730902
4.184595 115.2411 72.03965 0.3696516 -3.455777 1.626629 5.116186 4.694806 2.154673 -0 8.273038 -0 -9.070949 -12.17929 -0.2908628 -0.416094 -20.62518 -5.214546 -0 49.05592 -0 -2.238806 -4.293979 15.70914 -1.518605 0.5227454 7.355349 1.371755 11.37815 -5.564585 0.5430931 22.67247 5.714387 2.805141 -21.77102 6.133249 3.129444 -19.74138 12.72673 84.28742 33.10882 -13.19715 -0 0 13.98796 -17.55312 11.57491 10.78201 4.290582 -20.87945 -2.439909 -90.60149 20.89061 21.83748 0 0 -16.76299 7.2695 10.29538 4.754253
4.500054 115.3052 77.08078 0.2593398 -3.834458 1.308081 5.172566 9.094632 2.035623 -0 6.140962 -0 -8.24139 -14.08361 -0.1428273 1.344425 -24.46822 -3.64177 -0 37.59069 -0 -1.977558 -4.686888 17.62485 -1.414008 0.577919 7.396453 0.9312293 11.17698 -5.067971 0.5258297 22.66022 5.439574 2.415749 -20.94966 5.984274 2.111017 -21.15545 12.45373 82.80879 32.13143 -10.05687 -0 0 16.88807 -19.07385 11.34074 11.99759 4.689149 -20.23752 -2.161014 -91.16631 20.41934 23.17249 0 0 -15.34878 6.901067 10.28268 4.996649
4.918971 114.7605 82.27254 -0.1878087 -3.865075 0.8576582 5.274557 12.94454 1.888112 -0 4.936711 -0 -7.446679 -16.2544 0.1522053 2.915221 -26.94906 -2.531716 -0 25.71102 -0 -2.061196 -4.878888 18.9644 -1.063481 0.5019772 7.241348 0.6203555 10.70873 -4.668336 0.5467007 22.52615 5.24272 2.026007 -20.40731 6.009211 1.138068 -22.43503 11.98921 81.4374 30.92639 -7.106639 -0 0 19.78808 -20.32292 10.98692 13.15431 4.940644 -19.36632 -1.834829 -91.91829 20.20922 24.61005 0 0 -13.2695 6.356054 10.33785 5.465152
5.47748 113.8705 87.79363 -0.6684806 -3.577004 0.2770559 5.067908 16.19408 1.698644 -0 5.134476 -0 -6.677928 -17.90726 0.6857989 3.733479 -28.08498 -2.172112 -0 15.82257 -0 -2.239682 -4.923572 19.6637 -0.7946063 0.1835623 7.117248 0.4466163 10.15237 -4.392667 0.6208224 22.32438 5.158615 1.779396 -20.20904 6.168042 0.4773568 -23.38041 11.43292 80.28715 29.86177 -4.786871 -0 0 22.10385 -21.32083 10.63145 14.15945 5.019439 -18.50108 -1.462012 -92.66353 20.21747 25.88738 0 0 -10.94745 5.831757 10.34885 5.930186
6.195437 112.9641 93.80296 -0.8615594 -3.162811 -0.3650425 4.304968 18.8911 1.517207 -0 7.278887 -0 -5.984069 -17.9624 1.372395 3.423692 -27.95909 -2.66607 -0 9.734634 -0 -2.242034 -4.933398 19.92781 -0.8929846 -0.4576075 7.170379 0.3513697 9.722539 -4.220265 0.7716973 22.15655 5.177577 1.779142 -20.30595 6.396205 0.2476385 -23.83465 10.89828 79.53129 29.12287 -3.421748 -0 0 23.31378 -22.17332 10.34317 14.92322 4.976401 -17.85601 -1.084238 -93.25567 20.31229 26.75862 0 0 -8.736887 5.558264 10.31212 6.121043
7.064859 112.3524 100.3749 -0.580888 -2.945968 -0.9552787 2.980184 21.07951 1.396474 -0 11.80327 -0 -5.514069 -15.51748 1.954714 1.969964 -26.70464 -3.876444 -0 7.996291 -0 -1.92462 -5.043688 20.09241 -1.462853 -1.35251 7.375706 0.2368425 9.56568 -4.063388 1.020304 22.1458 5.252715 2.027462 -20.55542 6.639218 0.350808 -23.74351 10.46442 79.40389 28.61353 -3.078385 -0 0 23.17137 -22.97913 10.07097 15.4088 4.879274 -17.49062 -0.806028 -93.66817 20.36105 27.13381 0 0 -6.770412 5.599004 10.3183 5.99594
8.040893 112.2689 107.4417 0.1217505 -3.233076 -1.350563 1.36308 22.57499 1.345362 -0 18.80207 -0 -5.444883 -10.35936 2.159348 -0.2788229 -24.4413 -5.503454 -0 9.723537 -0 -1.336548 -5.393948 20.41407 -2.380192 -2.236697 7.530701 0.02452569 9.685394 -3.810574 1.367543 22.38372 5.335174 2.419225 -20.78741 6.882345 0.5392975 -23.16545 10.15304 80.08452 28.05932 -3.534872 -0 0 21.79321 -23.7122 9.667919 15.6344 4.753506 -17.2876 -0.7607689 -93.96007 20.34629 27.08218 0 0 -5.024521 5.775259 10.46895 5.833487
